<svg width="60" height="60" viewBox="0 0 60 60" fill="none" xmlns="http://www.w3.org/2000/svg">
<path d="M46.0838 44.3646H43.4346L41.5916 40.125C44.4712 39.7812 44.356 42.4167 44.356 42.4167C45.8534 40.5833 46.5445 38.6354 46.7749 36.8021C47.3508 28.5521 39.0576 27.8646 36.2932 25.8021C34.1047 24.1979 36.0628 23.5104 38.5969 23.3958C41.1309 23.2812 46.199 23.3958 44.356 25.4583C44.356 25.4583 48.1571 24.3125 48.0419 23.1667C48.0419 22.25 41.7068 22.1354 38.8272 22.0208C39.0576 21.4479 39.1728 20.7604 39.288 19.8438H42.9738C42.9738 19.8438 48.1571 19.8437 48.1571 22.3646C50.5759 18.5833 47.466 16.0625 43.089 17.2083C44.7016 17.6667 44.0105 18.8125 43.3194 18.6979C41.822 18.5833 39.4032 18.2396 39.4032 18.2396L37.5602 19.0417L34.4503 17.4375H37.0995C37.9058 17.4375 38.8272 17.7812 39.4032 18.3542C39.288 17.2083 39.288 15.6042 35.1414 15.1458C32.377 14.9167 28.1152 15.1458 22.5864 15.1458C22.5864 15.1458 29.6126 18.125 31.9162 19.9583L23.9686 18.8125L31.5707 22.25C29.1518 26.2604 32.6073 28.0938 33.5288 32.3333C33.9895 34.1667 33.8744 35.7708 33.0681 37.7187C33.0681 34.625 32.2618 32.7917 31.2251 31.0729C30.534 29.9271 27.3089 25.3437 29.7277 22.4792L6 14C10.4921 16.9792 13.0262 22.25 11.2984 25.2292L22.0105 26.2604C22.0105 26.2604 10.7225 25.8021 9.4555 26.8333C13.3717 26.4896 15.5602 32.3333 14.2932 35.6563C21.2042 33.3646 25.5811 33.3646 28.2304 34.2812C33.5288 36.2292 31.6859 42.6458 27.1937 42.4167C23.9686 42.3021 22.7016 37.4896 24.8901 37.9479C25.8115 38.1771 27.0785 39.3229 26.733 41.1562C27.3089 41.2708 27.8848 41.1562 28.2304 41.1562C29.267 37.8333 27.1937 35.7709 24.8901 35.3125C19.4764 34.1667 18.7853 40.2396 23.7382 44.7083C20.7435 46.3125 17.979 44.4792 16.1361 41.8437C17.0576 42.6458 17.979 43.1042 18.7853 43.4479C19.1309 43.2187 19.5916 42.9896 19.9372 43.1042L13.6021 37.7187L16.1361 47C16.712 44.25 17.979 45.5104 18.4398 45.7396C19.822 46.5417 21.5497 46.8854 23.623 46.1979C24.0838 46.0834 24.4293 45.8542 24.7749 45.625C28.9215 48.2604 35.8325 45.7396 38.7121 41.5L42.0524 44.8229H39.7487L40.0942 44.25C40.0942 44.25 36.9843 43.4479 37.6754 46.1979H50C49.7696 41.1563 45.8534 42.7604 46.4293 44.4792L46.0838 44.3646Z" fill="#020202"/>
</svg>
